<svg xmlns="http://www.w3.org/2000/svg" width="1481" height="176">
    <defs>
        <radialGradient id="a" cx="49.996%" cy="49.997%" r="50.004%" fx="49.996%" fy="49.997%"
                        gradientTransform="matrix(.99985 0 0 1 0 0)">
            <stop offset="0%" stop-color="#FFF" stop-opacity=".1"/>
            <stop offset="100%" stop-color="#FFF" stop-opacity="0"/>
        </radialGradient>
    </defs>
    <g fill="none" fill-rule="nonzero">
        <text fill="#757575" font-family="Roboto-Regular, Roboto" font-size="150" transform="translate(389)">
            <tspan x="0" y="139">Dart Helper Utils</tspan>
        </text>
        <path fill="#2BB7F6"
              d="M320.529 82.895c.36-2.512.719-5.024.719-7.895 0-2.87-.36-5.383-.719-7.895L336.7 55.622c1.438-1.077 2.156-3.23 1.078-5.024l-15.812-26.555c-1.078-1.794-2.874-2.512-4.671-1.435l-17.968 8.253c-4.313-3.23-8.625-5.741-13.656-7.894L283.874 3.23c-.359-1.795-1.796-3.23-3.593-3.23h-30.905c-1.797 0-3.594 1.435-3.594 3.23l-1.796 19.737c-5.032 2.153-9.703 4.665-13.656 7.894l-17.968-8.253c-1.797-.718-3.953 0-4.672 1.435l-15.452 26.555c-1.078 1.794-.36 3.947 1.078 5.024l16.171 11.483c-.36 2.512-.719 5.024-.719 7.895 0 2.87.36 5.383.719 7.895l-16.89 11.483c-1.437 1.077-2.156 3.23-1.078 5.024l15.453 26.555c1.078 1.794 2.874 2.512 4.671 1.435l17.968-8.253c4.312 3.23 8.625 5.741 13.656 7.894l1.797 19.737c.359 1.795 1.796 3.23 3.593 3.23h30.905c1.797 0 3.594-1.435 3.594-3.23l1.796-19.737c5.031-2.153 9.703-4.665 13.656-7.894l17.968 8.253c1.797.718 3.953 0 4.672-1.435L336.7 99.402c1.078-1.794.36-3.947-1.078-5.024L320.53 82.895Zm-56.06 27.99c-19.765 0-35.936-16.148-35.936-35.885s16.171-35.885 35.936-35.885S300.405 55.263 300.405 75s-16.171 35.885-35.936 35.885Z"/>
        <path fill="#02589B"
              d="M263.297 31.757c-23.783 0-43.243 19.46-43.243 43.243 0 23.784 19.46 43.243 43.243 43.243 23.784 0 43.244-19.46 43.244-43.243 0-23.784-19.46-43.243-43.244-43.243Zm0 61.261c-10.09 0-18.018-7.928-18.018-18.018s7.928-18.018 18.018-18.018S281.315 64.91 281.315 75s-7.928 18.018-18.018 18.018Z"/>
        <path fill="#01579B"
              d="M30.59 119.398 4.938 93.744C1.895 90.614 0 86.207 0 81.898c0-1.994 1.124-5.113 1.973-6.909l23.68-49.335 4.938 93.744Z"/>
        <path fill="#40C4FF"
              d="M118.418 30.59 92.764 4.938C90.527 2.689 85.854 0 81.909 0c-3.394 0-6.722.683-8.882 1.973l-47.362 23.68 92.753 4.938ZM61.181 149.989h62.173v-26.646l-46.381-14.799-42.426 14.799z"/>
        <path fill="#29B6F6"
              d="M25.665 105.59c0 7.913.992 9.863 4.937 13.82l3.945 3.944h88.807L79.937 74.02 25.665 25.665v79.926Z"/>
        <path fill="#01579B"
              d="M104.599 25.654H25.654l97.69 97.69h26.645V62.161l-31.571-31.571c-4.43-4.452-8.375-4.937-13.82-4.937Z"/>
        <path fill="#FFF"
              d="M31.582 120.39c-3.945-3.967-4.936-7.868-4.936-14.8V26.647l-.992-.992v79.926c.01 6.942.01 8.86 5.928 14.81l2.965 2.964-2.965-2.964Z"
              opacity=".2"/>
        <path fill="#263238" d="M149.008 61.181v61.182h-26.645l.991.98H150v-61.17z" opacity=".2"/>
        <path fill="#FFF"
              d="M118.418 30.59c-4.893-4.892-8.904-4.936-14.8-4.936H25.665l.992.992h76.972c2.931 0 10.37-.496 14.789 3.945Z"
              opacity=".2"/>
        <path fill="url(#a)"
              d="m149.008 61.181-30.59-30.59L92.764 4.937C90.527 2.689 85.854 0 81.909 0c-3.394 0-6.722.683-8.882 1.973l-47.362 23.68L1.984 74.99C1.135 76.785.01 79.904.01 81.899c0 4.308 1.895 8.716 4.937 11.845l23.648 23.472c.562.695 1.223 1.4 2.017 2.182l.991.992 2.965 2.964 25.654 25.654.991.992h62.173v-26.646h26.646V62.173l-1.025-.992Z"
              opacity=".2"/>
    </g>
</svg>