<?xml version="1.0" encoding="UTF-8"?>
<svg width="1481px" height="176px" viewBox="0 0 1481 176" version="1.1" xmlns="http://www.w3.org/2000/svg" xmlns:xlink="http://www.w3.org/1999/xlink">
    <title>logo</title>
    <defs>
        <radialGradient cx="49.9963273%" cy="49.9973553%" fx="49.9963273%" fy="49.9973553%" r="50.0036732%" gradientTransform="translate(0.499963,0.499974),scale(0.999853,1.000000),translate(-0.499963,-0.499974)" id="radialGradient-1">
            <stop stop-color="#FFFFFF" stop-opacity="0.1" offset="0%"></stop>
            <stop stop-color="#FFFFFF" stop-opacity="0" offset="100%"></stop>
        </radialGradient>
    </defs>
    <g id="Page-1" stroke="none" stroke-width="1" fill="none" fill-rule="evenodd">
        <g id="logo" transform="translate(0.000000, -0.000000)" fill-rule="nonzero">
            <g id="Group" transform="translate(389.000000, 0.000000)" fill="#757575" font-family="Roboto-Regular, Roboto" font-size="150" font-weight="normal">
                <g id="Flutter-Helper-Utils">
                    <text id="Dart-Helper-Utils">
                        <tspan x="0" y="139">Dart Helper Utils</tspan>
                    </text>
                </g>
            </g>
            <g id="icons8-settings-480" transform="translate(191.000000, 0.000000)">
                <path d="M129.528987,82.8947368 C129.888346,80.3827751 130.247705,77.8708134 130.247705,75 C130.247705,72.1291866 129.888346,69.6172249 129.528987,67.1052632 L145.700146,55.6220096 C147.137582,54.5454545 147.8563,52.3923445 146.778223,50.5980861 L130.966423,24.0430622 C129.888346,22.2488038 128.09155,21.5311005 126.294755,22.6076555 L108.326801,30.861244 C104.014492,27.6315789 99.7021825,25.1196172 94.6711553,22.9665072 L92.8743599,3.22966507 C92.5150008,1.4354067 91.0775644,0 89.280769,0 L58.3758874,0 C56.579092,0 54.7822965,1.4354067 54.7822965,3.22966507 L52.9855011,22.9665072 C47.9544739,25.1196172 43.2828057,27.6315789 39.3298557,30.861244 L21.3619013,22.6076555 C19.5651059,21.8899522 17.4089514,22.6076555 16.6902332,24.0430622 L1.23779241,50.5980861 C0.15971515,52.3923445 0.878433326,54.5454545 2.31586968,55.6220096 L18.4870286,67.1052632 C18.1276696,69.6172249 17.7683105,72.1291866 17.7683105,75 C17.7683105,77.8708134 18.1276696,80.3827751 18.4870286,82.8947368 L1.5971515,94.3779904 C0.15971515,95.4545455 -0.559003026,97.6076555 0.519074238,99.4019139 L15.971515,125.956938 C17.0495923,127.751196 18.8463877,128.4689 20.6431832,127.392344 L38.6111376,119.138756 C42.9234466,122.368421 47.2357557,124.880383 52.2667829,127.033493 L54.0635784,146.770335 C54.4229374,148.564593 55.8603738,150 57.6571692,150 L88.5620508,150 C90.3588462,150 92.1556417,148.564593 92.1556417,146.770335 L93.9524371,127.033493 C98.9834644,124.880383 103.655132,122.368421 107.608082,119.138756 L125.576037,127.392344 C127.372832,128.110048 129.528987,127.392344 130.247705,125.956938 L145.700146,99.4019139 C146.778223,97.6076555 146.059505,95.4545455 144.622069,94.3779904 L129.528987,82.8947368 Z M73.4689691,110.885167 C53.7042193,110.885167 37.5330603,94.7368421 37.5330603,75 C37.5330603,55.2631579 53.7042193,39.1148325 73.4689691,39.1148325 C93.2337189,39.1148325 109.404878,55.2631579 109.404878,75 C109.404878,94.7368421 93.2337189,110.885167 73.4689691,110.885167 Z" id="Shape" fill="#2BB7F6"></path>
                <path d="M72.2972973,31.7567568 C48.5135135,31.7567568 29.0540541,51.2162162 29.0540541,75 C29.0540541,98.7837838 48.5135135,118.243243 72.2972973,118.243243 C96.0810811,118.243243 115.540541,98.7837838 115.540541,75 C115.540541,51.2162162 96.0810811,31.7567568 72.2972973,31.7567568 Z M72.2972973,93.018018 C62.2072072,93.018018 54.2792793,85.0900901 54.2792793,75 C54.2792793,64.9099099 62.2072072,56.981982 72.2972973,56.981982 C82.3873874,56.981982 90.3153153,64.9099099 90.3153153,75 C90.3153153,85.0900901 82.3873874,93.018018 72.2972973,93.018018 Z" id="Shape" fill="#02589B"></path>
            </g>
            <g id="Group">
                <path d="M30.5906553,119.398325 L4.93682045,93.7444902 C1.89538642,90.6148986 7.10542736e-15,86.2070232 7.10542736e-15,81.898325 C7.10542736e-15,79.9037614 1.12400823,76.7851895 1.97252424,74.9889803 L25.6538349,25.6538349 L30.5906553,119.398325 Z" id="Path" fill="#01579B"></path>
                <path d="M118.417573,30.5906553 L92.7637379,4.93682045 C90.5267411,2.688804 85.8543932,-3.91497981e-15 81.9093447,-3.91497981e-15 C78.5152806,-3.91497981e-15 75.1873347,0.683220688 73.0274758,1.97252424 L25.6648545,25.6538349 L118.417573,30.5906553 Z" id="Path" fill="#40C4FF"></path>
                <polygon id="Path" fill="#40C4FF" points="61.1813106 149.98898 123.354393 149.98898 123.354393 123.343373 76.9725242 108.543932 34.5467235 123.343373"></polygon>
                <path d="M25.6648545,105.590655 C25.6648545,113.502792 26.6566265,115.453277 30.601675,119.409345 L34.5467235,123.354393 L123.354393,123.354393 L79.9368205,74.0192477 L25.6648545,25.6648545 L25.6648545,105.590655 Z" id="Path" fill="#29B6F6"></path>
                <path d="M104.598883,25.6538349 L25.6538349,25.6538349 L123.343373,123.343373 L149.98898,123.343373 L149.98898,62.1620629 L118.417573,30.5906553 C113.987658,26.1387011 110.042609,25.6538349 104.598883,25.6538349 Z" id="Path" fill="#01579B"></path>
                <path d="M31.5824273,120.390097 C27.6373788,116.423009 26.6456068,112.522039 26.6456068,105.590655 L26.6456068,26.6456068 L25.6538349,25.6538349 L25.6538349,105.579636 C25.6648545,112.522039 25.6648545,114.439465 31.5824273,120.390097 L34.5467235,123.354393 L34.5467235,123.354393 L31.5824273,120.390097 Z" id="Path" fill="#FFFFFF" opacity="0.2"></path>
                <polygon id="Path" fill="#263238" opacity="0.2" points="149.008228 61.1813106 149.008228 122.362621 122.362621 122.362621 123.354393 123.343373 150 123.343373 150 62.1730826"></polygon>
                <path d="M118.417573,30.5906553 C113.524831,25.6979136 109.513664,25.6538349 103.618131,25.6538349 L25.6648545,25.6538349 L26.6566265,26.6456068 L103.629151,26.6456068 C106.560388,26.6456068 113.998678,26.1497208 118.417573,30.5906553 L118.417573,30.5906553 Z" id="Path" fill="#FFFFFF" opacity="0.2"></path>
                <path d="M149.008228,61.1813106 L118.417573,30.5906553 L92.7637379,4.93682045 C90.5267411,2.688804 85.8543932,-3.91497981e-15 81.9093447,-3.91497981e-15 C78.5152806,-3.91497981e-15 75.1873347,0.683220688 73.0274758,1.97252424 L25.6648545,25.6538349 L1.98354393,74.9889803 C1.13502792,76.7851895 0.0110196885,79.9037614 0.0110196885,81.898325 C0.0110196885,86.2070232 1.90640611,90.6148986 4.94784014,93.7444902 L28.5960917,117.216427 C29.1580958,117.910667 29.8192771,118.615927 30.6126947,119.398325 L31.6044666,120.390097 L34.5687629,123.354393 L60.2225977,149.008228 L61.2143697,150 L122.39568,150 L123.387452,150 L123.387452,123.354393 L150.033059,123.354393 L150.033059,123.288275 L150.033059,62.1730826 L149.008228,61.1813106 Z" id="Path" fill="url(#radialGradient-1)" opacity="0.2"></path>
            </g>
        </g>
    </g>
</svg>